<svg width="25" height="27" viewBox="0 0 25 27" fill="none" xmlns="http://www.w3.org/2000/svg">
<path d="M23.4681 25.5867C22.8776 26.3265 22.0134 26.7516 21.1047 26.7488H4.00525C3.09749 26.7458 2.23551 26.3221 1.64176 25.5867C1.07524 24.877 0.841959 23.9291 1.00891 23.0128C1.65875 19.5102 3.69379 16.4815 6.58835 14.7102C8.23734 16.2593 10.3554 17.1135 12.5484 17.1135C14.7414 17.1135 16.8599 16.2593 18.5088 14.7102C19.3723 15.2314 20.1674 15.8733 20.8723 16.6198C22.5415 18.3505 23.6886 20.5773 24.1657 23.0128C24.3211 23.9405 24.0632 24.8925 23.4681 25.5867Z" fill="black"/>
<path d="M18.9999 7.49995C18.9999 11.3208 16.1086 14.4186 12.5421 14.4186C8.97566 14.4186 6.08472 11.3208 6.08472 7.49995C6.08472 3.67872 8.97566 0.580933 12.5421 0.580933C16.1086 0.580933 18.9999 3.67872 18.9999 7.49995Z" fill="black"/>
</svg>
