<svg width="47" height="40" viewBox="0 0 47 40" fill="none" xmlns="http://www.w3.org/2000/svg">
<path d="M43.8666 0H3.13335C2.3027 0 1.50552 0.330005 0.917726 0.917724C0.330404 1.50543 0 2.30227 0 3.13335V36.8166C0 37.6476 0.330394 38.4444 0.917726 39.0322C1.50544 39.6199 2.30267 39.9499 3.13335 39.9499H43.8666C44.6977 39.9499 45.4945 39.6199 46.0823 39.0322C46.6696 38.4445 47 37.6476 47 36.8166V3.13335C47 2.30231 46.6696 1.50551 46.0823 0.917724C45.4946 0.330014 44.6977 0 43.8666 0ZM10.9676 3.91651C11.2843 3.91651 11.57 4.10736 11.6913 4.40005C11.8126 4.69274 11.7453 5.02974 11.5215 5.25363C11.2972 5.47791 10.9606 5.54477 10.6679 5.42349C10.3752 5.30221 10.1843 5.01653 10.1843 4.69974C10.1843 4.26711 10.5349 3.91651 10.9676 3.91651ZM7.83428 3.91651C8.15107 3.91651 8.43676 4.10736 8.55803 4.40005C8.67931 4.69274 8.61206 5.02974 8.38817 5.25363C8.16389 5.47791 7.82728 5.54477 7.53459 5.42349C7.2419 5.30221 7.05104 5.01653 7.05104 4.69974C7.05104 4.26711 7.40165 3.91651 7.83428 3.91651ZM4.70099 3.91651C5.01778 3.91651 5.30348 4.10736 5.42475 4.40005C5.54603 4.69274 5.47878 5.02974 5.25489 5.25363C5.031 5.47791 4.694 5.54477 4.40131 5.42349C4.10861 5.30221 3.91776 5.01653 3.91776 4.69974C3.91776 4.26711 4.26836 3.91651 4.70099 3.91651ZM45.4333 36.8156C45.4333 37.2311 45.2685 37.6295 44.9746 37.9234C44.6808 38.2173 44.2823 38.3825 43.8668 38.3825H3.13351C2.71799 38.3825 2.31957 38.2173 2.0257 37.9234C1.73223 37.6296 1.56703 37.2311 1.56703 36.8156V9.39935H45.4328L45.4333 36.8156Z" fill="black"/>
<path d="M4.70071 11.7499H42.3005C42.7331 11.7499 43.0838 12.1825 43.0838 12.5331V19.583C43.0838 20.0156 42.7331 20.3662 42.3005 20.3662H4.70071C4.26809 20.3662 3.91748 19.9336 3.91748 19.583V12.5331C3.91748 12.1005 4.26809 11.7499 4.70071 11.7499Z" fill="black"/>
<path d="M4.70071 22.7164H16.4505C16.8832 22.7164 17.2338 23.1491 17.2338 23.4997V35.2495C17.2338 35.6821 16.8832 36.0327 16.4505 36.0327H4.70071C4.26809 36.0327 3.91748 35.6001 3.91748 35.2495V23.4997C3.91748 23.067 4.26809 22.7164 4.70071 22.7164Z" fill="black"/>
<path d="M20.367 22.7164H42.3004C42.733 22.7164 43.0836 23.1491 43.0836 23.4997V35.2495C43.0836 35.6821 42.733 36.0327 42.3004 36.0327H20.367C19.9343 36.0327 19.5837 35.6001 19.5837 35.2495V23.4997C19.5837 23.067 19.9343 22.7164 20.367 22.7164Z" fill="black"/>
</svg>
